<?xml version="1.0" encoding="UTF-8"?><svg xmlns="http://www.w3.org/2000/svg" class="header" enable-background="new 0 0 1001 361" height="39px" preserveAspectRatio="xMidYMid meet" viewBox="0 0 1001 361" width="109px"><style>
    .t1{fill:#003e74;}
    .header .t1 {fill:#FFFFFF;}
</style><path d="M17.6 137.408C19.4 136.608 21.3 136.408 23.3 135.808C20.2 132.808 17.4 129.508 14.8 126.008C14.1 125.008 14.4 124.408 15.1 124.208C15.7 124.008 15.2 123.008 15.6 122.408C16.9 122.008 16.7 120.708 17.4 119.908C17.4 119.608 17.4 118.708 17.6 118.408C17.8 118.208 18.1 118.208 18.4 118.208C18.7 118.208 18.9 118.308 19.2 118.408C21.5 120.908 24 123.208 26.9 125.108C30.3 127.108 33.4 129.408 36.4 132.008C36.7 132.008 37.5 132.508 37.6 132.008C38 129.108 38.9 126.408 40.2 123.808C40.5 122.808 40.9 121.808 41.5 120.908C42.6 119.208 44.1 117.808 45.9 116.908C48.5 115.408 51.5 116.908 53.3 114.608C54 114.108 55.1 114.608 55.7 114.608C57.4 115.408 59.8 114.908 61.1 116.308C58.9 121.508 58.7 127.008 57.1 132.608C57 133.808 56.1 135.508 57 135.908C60.2 136.408 63.4 136.308 66.5 135.508C69.9 135.308 73.4 135.608 76.7 136.408C79.2 137.108 81.4 138.408 83.3 140.108C87.1 143.008 86.9 148.308 86.6 152.908C86.6 153.208 84.9 154.808 84.3 154.708C83.7 154.608 83.9 153.408 83.6 153.408C82.1 154.908 80.4 156.208 78.6 157.308C78.3 157.308 76.5 155.508 75.7 155.008C72.7 153.408 69.3 153.108 66.1 153.908C62.2 154.208 58.4 153.708 54.6 155.308C56 158.008 58.5 159.208 60.6 161.408C64 165.008 67.5 167.608 71.2 170.908C73.6 173.008 75.7 175.508 77.3 178.208C76.3 178.708 77.3 179.208 76.8 179.708C76.3 180.308 76.3 178.908 75.7 178.808C75.1 178.708 74.7 179.608 74.9 180.208C75.1 180.908 74.3 182.108 73.7 182.308C73.1 182.508 72 183.508 71.5 183.308C71 183.208 69.4 182.508 69.6 182.708C70.2 183.308 70.5 184.208 70.6 185.108C70 185.108 69.4 184.908 68.8 184.708C68.2 184.408 67.7 184.108 67.3 183.608C62.5 179.508 58.4 175.208 53.3 170.808C51.8 168.708 50 166.808 48.2 165.008C44.7 173.108 42.4 178.908 38.9 187.008C38.1 188.408 37.6 192.208 36.9 192.608C36.1 193.008 34.3 189.908 33.2 187.708C33.3 183.708 33.5 179.808 34 175.808V174.908C34.3 168.208 36.3 162.308 36 155.608C36 155.008 35.2 154.908 34.3 154.808C25.6 153.808 17.1 152.908 8.4 151.608C6.3 151.508 4.3 151.108 2.3 150.408C1.8 150.008 1.3 149.708 0.599998 149.508C0.299998 149.108 0.3 149.108 0 149.008C3.1 145.208 7 142.108 11.3 139.708C12.5 139.408 16 138.108 17.6 137.408Z" fill="#F58025"/><path class="t1" d="M98.6 184.308C98.1 184.108 98.4 183.608 98.4 183.308C98.9 182.308 100 182.508 100.7 182.508C103.1 181.808 105.6 182.508 107.9 181.808C108.4 181.608 108.8 180.808 109.1 180.808C110.9 180.108 112.7 179.508 114.5 179.008C115 178.808 116.1 178.008 115.7 177.308C113.5 175.408 111.7 173.008 110.5 170.308C109.8 168.808 108.6 167.608 108.6 166.208C108.6 164.808 110 164.808 111.2 165.208C116.1 168.308 120.3 172.408 123.6 177.108C124.3 178.108 125 175.908 125.3 175.208C126.7 171.208 128.4 167.208 130.2 163.308C130.7 162.108 131.6 160.608 132.8 160.408C134.4 159.708 135.9 158.808 137.2 157.708C138.4 157.208 139.3 157.708 140.5 157.008C141.2 156.808 142.1 158.008 143.1 157.508C144.5 156.508 145.7 157.308 147.1 157.508C147.5 157.708 147.8 158.108 148 158.508C148.2 158.908 148.2 159.408 148 159.908C146.9 163.508 145.5 166.908 143.8 170.308C142.1 173.008 140.9 175.408 138.9 178.008C138.9 178.308 138.6 178.808 139.1 179.008C140.3 179.308 141.7 179.008 142.6 179.508C146.1 180.208 149.7 180.708 153.3 181.008C155.2 181.508 155.2 184.208 156.8 185.608C157.7 186.308 156.1 187.008 155.1 187.308C152.5 188.008 150 187.008 147.4 187.808C142.9 188.808 138.7 187.808 134.5 189.508C135.9 190.908 137.4 192.208 138.5 193.608L142 198.708C143.1 200.508 143.8 202.508 144.3 204.508C144.6 205.608 144.7 206.808 144.5 208.008C144 207.808 144 206.808 143.6 206.508C143.1 206.208 142.7 207.508 142 207.308C141.7 207.208 141.5 207.008 141.3 206.808C141.1 206.608 140.9 206.308 140.8 206.108C139.9 205.108 139.2 203.908 138.7 202.708C136.8 199.308 134.1 196.408 130.8 194.308C128.3 200.508 125.4 206.508 121.9 212.208C121.6 212.708 120.9 212.708 120.2 212.708C120 212.508 119.5 213.208 119.3 213.408C119.1 212.908 118.6 212.708 118.4 212.408C117.2 211.408 115.5 210.408 115.1 209.008C114.4 207.708 114 206.308 113.9 204.908C113.9 204.708 113.4 204.208 113.4 203.908C113.9 202.908 113.9 201.708 114.3 201.008C115.1 200.308 115.8 199.408 116.2 198.308C117.4 195.408 119.5 193.208 120 190.108C114.4 189.108 108.5 189.608 103.2 187.408C101.9 186.908 100.7 186.408 99.5 185.708C99.1 185.308 99.3 184.508 98.6 184.308Z"/><path d="M105.3 94.2081C107 90.0081 109.8 87.2081 110.3 82.5081C101.1 77.4081 89.8999 80.4081 83.0999 68.2081C81.4999 65.7081 83.0999 53.3081 84.0999 51.9081C86.1999 47.4081 90.1999 47.5081 94.0999 50.6081C95.3999 50.6081 96.7999 50.9081 97.9999 51.5081C102 51.4081 106 52.0081 109.8 53.3081C115.1 53.9081 119.5 55.9081 124.3 55.4081C124.6 55.0081 124.9 54.5081 125 54.0081C125.1 53.5081 125.2 53.0081 125.1 52.5081C124 45.2081 122.2 39.0081 120.5 31.4081C120 29.5081 119.6 27.6081 119.5 25.6081C119.2 21.4081 116.3 14.6081 118.9 12.7081C119.3 12.4081 119.8 13.5081 120.1 13.3081C120.5 13.0081 121.4 11.6081 122 11.9081C131.1 17.9081 138.6 27.2081 146.6 36.3081C149.2 38.8081 149.7 31.8081 151.7 29.6081C152.3 28.5081 151.7 26.0081 152.2 24.8081C154.1 21.2081 154.6 16.4081 156.2 13.1081C159.2 8.60812 160.9 2.1081 165.6 0.208097C167.4 -0.191903 169.2 0.00812107 170.9 0.608121C172.6 1.20812 174.1 2.3081 175.2 3.7081C175.8 4.0081 177.2 3.70812 178.1 4.60812C181.3 7.50812 183.9 11.4081 187.5 14.8081C188.1 15.5081 188.4 16.3081 188.6 17.2081C188.8 18.1081 188.8 19.0081 188.6 19.9081C187.8 24.9081 183.3 25.2081 180.8 28.6081L165.8 52.9081C165.3 54.0081 163.9 56.5081 165 57.9081C172 64.7081 178.1 72.1081 186 77.4081C190.9 80.6081 196.3 80.3081 200.5 84.6081C203.6 88.3081 206 92.7081 207.5 97.3081C189.8 108.708 169.7 90.0081 150.8 90.4081C149.4 90.7081 149.8 92.6081 149.6 93.5081C150.6 101.708 152 109.508 152.8 117.108C153.2 122.708 156 128.108 156.8 133.408C157.2 135.408 159 140.708 156.3 140.408C154.5 140.508 152.6 140.008 151.1 139.108C149.5 138.108 148.3 136.708 147.6 135.008C144.7 128.808 142.2 122.308 140.2 115.808C139.5 114.008 139.4 112.108 139.7 110.208C139.5 107.208 138.5 104.308 137 101.808C136.5 100.708 135.3 102.408 134.5 102.908C131.8 106.308 129.3 109.808 127.1 113.508C123.3 118.908 118 123.308 111.9 126.008C107.6 127.608 101 128.708 98.0999 122.008C99.4999 121.708 100.7 118.608 99.7999 117.808C93.0999 107.608 102.4 101.508 105.3 94.2081Z" fill="#57A3CC"/><path class="t1" d="M300.8 208.108H284.4V121.608H300.8V136.108C307.1 126.508 314.6 120.308 328.9 120.308H330V134.208H328.9C322.4 134.208 316.1 136.708 311.5 141.108C305.2 146.908 301.4 154.808 300.8 163.308V208.108V208.108Z"/><path class="t1" d="M365.5 209.708C346.1 209.708 337.2 197.108 337.2 185.408C337.2 166.908 353 157.008 393.4 150.108V146.508C393.4 137.008 387.6 132.008 376.2 132.008C361 132.008 355.8 141.508 354.5 144.508L354.1 145.508L339.3 139.308L339.9 138.208C346.4 127.008 360.5 119.808 376 119.808C392.8 119.808 409.7 128.008 409.7 146.208V188.908C409.5 194.908 410.2 200.908 411.7 206.808L412 208.208H395.1L393.9 197.808C386.4 205.308 376.2 209.608 365.5 209.708ZM393.4 162.708C366.6 167.308 353.6 174.808 353.6 185.608C353.6 192.608 360.8 197.508 367.2 197.508C375.2 197.508 386.2 191.908 393.4 184.208V162.708Z"/><path class="t1" d="M466.3 208.108H446.4L418.4 121.508H435.1L457 189.308L478.9 121.508H493.6L466.3 208.108Z"/><path class="t1" d="M611.1 208.108H594.6V92.9081L611.1 85.9081V208.108Z"/><path class="t1" d="M665 209.708C641.4 209.708 625.7 191.708 625.7 164.808C625.7 137.908 641.5 119.908 665 119.908C688.6 119.908 704.3 138.008 704.3 164.708C704.4 191.408 688.6 209.708 665 209.708ZM665 132.208C650.6 132.208 642 144.408 642 164.808C642 185.208 650.7 197.508 665 197.508C679.2 197.508 687.9 185.308 687.9 164.808C688 144.408 679.4 132.208 665 132.208Z"/><path class="t1" d="M753 209.708C729.5 209.708 713.7 191.708 713.7 164.808C713.7 137.908 729.5 119.908 753 119.908C769.8 119.908 781.6 127.808 788.3 143.508L788.8 144.608L773.3 149.108L773 148.108C770.6 140.808 765.1 132.108 753.1 132.108C738.6 132.108 730.1 144.008 730.1 164.708C730.1 185.408 738.5 197.408 753.1 197.408C764.4 197.408 770.1 193.808 776.6 182.408L777 181.608L791 186.608L790.3 187.808C780.3 203.608 769.9 209.708 753 209.708Z"/><path class="t1" d="M819.4 208.108H803V121.608H819.4V208.108Z"/><path class="t1" d="M250.1 209.708C237.8 209.708 229.7 207.208 228.2 194.808V133.808H215.2V121.608H228.3V97.9081L244.7 90.9081V121.508H265.5L262.2 133.708H244.8V192.708C244.8 195.008 245.9 197.408 253.8 197.408C257.9 197.408 262 197.108 266.1 196.408L267.8 196.208L264.5 208.308H263.8C259.2 209.308 254.7 209.708 250.1 209.708Z"/><path class="t1" d="M908 239.708C904.1 239.608 900.1 239.308 896.2 238.708H894.9L898.5 226.408H899.4H900.7C902.4 226.608 904.2 226.708 906 226.708C914.2 226.708 924.1 224.508 928.1 207.808L896.8 121.508H912.1L912.4 122.208L935.4 184.108L955.8 121.508H973L941.2 214.808C933.1 236.508 916.9 239.708 908 239.708Z"/><path class="t1" d="M871.7 209.708C859.4 209.708 851.3 207.208 849.7 194.808V133.808H836.6V121.608H849.7V97.9081L866.1 90.9081V121.508H886.9L883.6 133.708H866.2V192.708C866.2 195.008 867.2 197.408 875.2 197.408C879.3 197.408 883.5 197.008 887.6 196.408L889.3 196.208L886 208.408H885.3C880.8 209.308 876.2 209.708 871.7 209.708Z"/><path class="t1" d="M542.5 209.708C532 209.908 521.9 206.108 514.1 199.108C505.4 191.108 500.9 179.308 500.9 164.808C500.9 138.008 516.7 119.908 540.1 119.908C549.5 119.708 558.6 123.008 565.6 129.208C573 136.108 576.9 146.608 576.9 159.208V168.108H517.3C517.8 184.908 528.4 197.408 542.5 197.408C547.2 197.508 551.9 196.208 556 193.908C560.1 191.608 563.5 188.208 565.8 184.108L566.5 182.908L577.1 193.008L576.5 193.808C565.7 208.508 559.4 209.708 542.5 209.708ZM517.8 156.008H560.6C560.2 141.308 552.6 132.208 540.5 132.208C527.4 132.208 519.2 140.808 517.8 156.008Z"/><path class="t1" d="M819.4 109.208H803V93.0081H819.4V109.208Z"/><path class="t1" d="M979.6 127.908C980.1 126.708 980.9 125.508 981.9 124.608C982.9 123.708 984 122.908 985.3 122.408C987.9 121.408 990.9 121.408 993.5 122.408C994.7 122.908 995.9 123.708 996.9 124.608C997.9 125.608 998.6 126.708 999.2 127.908C999.8 129.208 1000.1 130.608 1000.1 132.008C1000.1 133.408 999.8 134.908 999.2 136.208C998.7 137.408 997.9 138.608 996.9 139.508C995.9 140.408 994.8 141.208 993.5 141.708C990.9 142.708 987.9 142.708 985.3 141.708C984 141.208 982.8 140.508 981.8 139.508C980.8 138.608 980 137.408 979.5 136.208C978.9 134.908 978.6 133.508 978.6 132.008C978.6 130.508 979 129.108 979.6 127.908ZM981.3 135.608C981.7 136.708 982.3 137.708 983.1 138.508C983.9 139.308 984.9 140.008 986 140.408C987.1 140.808 988.3 141.108 989.5 141.108C990.7 141.108 991.8 140.908 992.9 140.408C994 140.008 995 139.308 995.8 138.508C996.6 137.708 997.2 136.708 997.6 135.608C998 134.508 998.3 133.308 998.3 132.008C998.3 130.808 998.1 129.608 997.6 128.508C997.2 127.408 996.6 126.408 995.8 125.608C995 124.808 994 124.108 992.9 123.708C991.8 123.208 990.7 123.008 989.5 123.008C988.3 123.008 987.1 123.208 986 123.708C984.9 124.108 983.9 124.808 983.1 125.608C982.3 126.408 981.7 127.408 981.3 128.508C980.9 129.608 980.6 130.808 980.6 132.008C980.7 133.208 980.9 134.408 981.3 135.608ZM990.1 125.908C991.3 125.808 992.4 126.108 993.4 126.808C993.8 127.108 994.1 127.508 994.2 128.008C994.4 128.508 994.5 128.908 994.4 129.408C994.4 129.808 994.4 130.308 994.2 130.708C994 131.108 993.8 131.508 993.4 131.808C992.7 132.308 991.9 132.708 991.1 132.708L994.5 138.108H992.4L989.2 132.808H987.2V138.108H985.3V125.808H990.1V125.908ZM989.2 131.308H990.5C990.8 131.308 991.2 131.208 991.5 131.108C991.8 131.008 992 130.708 992.2 130.508C992.4 130.208 992.5 129.808 992.5 129.408C992.5 129.108 992.4 128.708 992.3 128.408C992.1 128.208 991.9 128.008 991.7 127.808C991.4 127.708 991.1 127.608 990.8 127.508H989.8H987.3V131.308H989.2Z"/><path class="t1" d="M979.6 127.908C980.1 126.708 980.9 125.508 981.9 124.608C982.9 123.708 984 122.908 985.3 122.408C987.9 121.408 990.9 121.408 993.5 122.408C994.7 122.908 995.9 123.708 996.9 124.608C997.9 125.608 998.6 126.708 999.2 127.908C999.8 129.208 1000.1 130.608 1000.1 132.008C1000.1 133.408 999.8 134.908 999.2 136.208C998.7 137.408 997.9 138.608 996.9 139.508C995.9 140.408 994.8 141.208 993.5 141.708C990.9 142.708 987.9 142.708 985.3 141.708C984 141.208 982.8 140.508 981.8 139.508C980.8 138.608 980 137.408 979.5 136.208C978.9 134.908 978.6 133.508 978.6 132.008C978.6 130.508 979 129.108 979.6 127.908ZM981.3 135.608C981.7 136.708 982.3 137.708 983.1 138.508C983.9 139.308 984.9 140.008 986 140.408C987.1 140.808 988.3 141.108 989.5 141.108C990.7 141.108 991.8 140.908 992.9 140.408C994 140.008 995 139.308 995.8 138.508C996.6 137.708 997.2 136.708 997.6 135.608C998 134.508 998.3 133.308 998.3 132.008C998.3 130.808 998.1 129.608 997.6 128.508C997.2 127.408 996.6 126.408 995.8 125.608C995 124.808 994 124.108 992.9 123.708C991.8 123.208 990.7 123.008 989.5 123.008C988.3 123.008 987.1 123.208 986 123.708C984.9 124.108 983.9 124.808 983.1 125.608C982.3 126.408 981.7 127.408 981.3 128.508C980.9 129.608 980.6 130.808 980.6 132.008C980.7 133.208 980.9 134.408 981.3 135.608ZM990.1 125.908C991.3 125.808 992.4 126.108 993.4 126.808C993.8 127.108 994.1 127.508 994.2 128.008C994.4 128.508 994.5 128.908 994.4 129.408C994.4 129.808 994.4 130.308 994.2 130.708C994 131.108 993.8 131.508 993.4 131.808C992.7 132.308 991.9 132.708 991.1 132.708L994.5 138.108H992.4L989.2 132.808H987.2V138.108H985.3V125.808H990.1V125.908ZM989.2 131.308H990.5C990.8 131.308 991.2 131.208 991.5 131.108C991.8 131.008 992 130.708 992.2 130.508C992.4 130.208 992.5 129.808 992.5 129.408C992.5 129.108 992.4 128.708 992.3 128.408C992.1 128.208 991.9 128.008 991.7 127.808C991.4 127.708 991.1 127.608 990.8 127.508H989.8H987.3V131.308H989.2Z"/><path class="t1" clip-rule="evenodd" d="M444.4 288.308C450.1 299.308 451.4 312.508 447.1 325.108C438.7 349.708 412 362.808 387.4 354.408C362.8 346.008 349.7 319.308 358.1 294.708C366.5 270.108 393.2 257.008 417.8 265.408C428.3 269.008 436.7 275.908 442.2 284.508C439.9 285.608 437.6 286.708 435.4 287.808C429.3 290.708 423.5 293.408 417.3 296.808L385.4 280.608L382.4 282.308L402.6 298.508L405.8 303.308C405.8 303.308 399.8 306.808 395.7 309.108C390.8 311.908 367.7 327.408 361 332.008C361.5 333.008 362.1 334.008 362.8 335.008C370.1 331.508 395 319.308 400 316.408C404 314.008 410 310.608 410 310.608L412.5 315.808L416.4 341.408L419.4 339.708L421.4 304.008C427.4 300.208 432.7 296.608 438.2 292.808C440.2 291.208 442.2 289.808 444.4 288.308Z" fill-rule="evenodd"/><path class="t1" clip-rule="evenodd" d="M777.7 299.408V294.208H786.8V341.208H777.4V335.908C774.1 339.808 769.4 342.408 762.6 342.408C749.2 342.408 740.6 331.708 740.6 317.808C740.6 303.908 749.2 293.208 762.6 293.208C768.5 293.208 774 295.408 777.7 299.408ZM777 308.608C774.2 304.508 769.5 302.008 764 302.008C755.7 302.008 750 309.008 750 317.808C750 326.608 755.5 333.808 764 333.808C769.7 333.808 774.3 330.608 777 326.408V308.608Z" fill-rule="evenodd"/><path class="t1" d="M721.7 282.108C721.7 278.508 724.7 275.608 728.3 275.608C731.8 275.608 734.8 278.608 734.8 282.108C734.8 285.808 731.9 288.708 728.3 288.708C724.7 288.708 721.7 285.808 721.7 282.108Z"/><path class="t1" d="M723.5 294.208H733.2V341.208H723.5V294.208Z"/><path class="t1" clip-rule="evenodd" d="M704.4 276.808H713.9V341.308H704.6V336.008C701.3 339.908 696.6 342.508 689.8 342.508C676.4 342.508 667.8 331.808 667.8 317.908C667.8 304.008 676.4 293.308 689.8 293.308C695.5 293.308 700.8 295.408 704.5 299.108V276.808H704.4ZM704.2 308.608C701.4 304.508 696.7 302.008 691.2 302.008C682.9 302.008 677.2 309.008 677.2 317.808C677.2 326.608 682.7 333.808 691.2 333.808C696.9 333.808 701.5 330.608 704.2 326.408V308.608Z" fill-rule="evenodd"/><path class="t1" clip-rule="evenodd" d="M640.4 342.508C644.6 342.508 648.5 341.708 652 340.108C655.5 338.508 658.5 336.208 661.2 333.208L655.4 327.008C653.5 329.008 651.3 330.608 648.9 331.908C646.5 333.108 643.8 333.708 640.7 333.708C633.4 333.708 627.1 328.208 626.2 321.008H662.6C662.6 320.908 662.6 320.808 662.6 320.708C662.7 319.608 662.7 318.508 662.7 317.308C662.7 303.908 653.1 293.008 639.7 293.008C626.3 293.008 616.1 303.608 616.1 317.708C616.3 332.108 626.4 342.508 640.4 342.508ZM626.3 313.008H652.9C652 306.508 646.6 301.608 639.7 301.608C636.2 301.608 633.1 303.108 630.7 305.308C628.3 307.508 626.7 310.308 626.3 313.008Z" fill-rule="evenodd"/><path class="t1" clip-rule="evenodd" d="M575 336.608V358.808H565.5V294.308H574.9V299.608C578.2 295.708 582.9 293.108 589.7 293.108C603.1 293.108 611.7 303.808 611.7 317.708C611.7 331.608 603.1 342.308 589.7 342.308C583.9 342.408 578.6 340.308 575 336.608ZM575.2 326.908C578 331.008 582.7 333.508 588.2 333.508C596.5 333.508 602.2 326.508 602.2 317.708C602.2 308.908 596.7 301.708 588.2 301.708C582.5 301.708 577.9 304.908 575.2 309.108V326.908Z" fill-rule="evenodd"/><path class="t1" d="M531.7 317.108L515.1 294.208H526.8L537.9 309.808L549 294.208H560.6L543.9 317.208L561.3 341.308H549.6L537.8 324.608L526 341.308H514.2L531.7 317.108Z"/><path class="t1" d="M483.7 313.708H508.1V304.508H483.7V287.708H510.3V278.508H473.1V341.308H510.5V332.108H483.8V313.708H483.7Z"/><path class="t1" d="M238.4 341.308V335.408C241.6 339.808 247.1 342.408 253.1 342.408C265 342.408 274.3 332.408 274.3 319.708C274.3 306.808 265.1 297.008 253.1 297.008C247.1 297.008 241.6 299.808 238.4 304.308V279.508H228.2V341.508H238.4V341.308ZM263.9 319.608C263.9 327.108 258.2 333.108 250.9 333.108C243.6 333.108 237.9 327.208 237.9 319.608C237.9 312.108 243.6 306.108 250.9 306.108C258.3 306.108 263.9 312.108 263.9 319.608ZM283.9 360.908C291.2 360.908 296 356.708 300.3 346.508L320.4 297.908H309.9L297.6 329.208L285.7 298.008H274.8L292.1 340.708L290.2 345.208C288.2 350.108 285.9 351.808 282.2 351.808C280.5 351.808 278.9 351.408 277.7 350.908V359.708C279.3 360.308 281.2 360.908 283.9 360.908Z"/></svg>